<?xml version="1.0" encoding="UTF-8"?>
<svg id="Layer_1" xmlns="http://www.w3.org/2000/svg" version="1.1" xmlns:xlink="http://www.w3.org/1999/xlink" viewBox="200 60 375 392">
  <!-- viewBox="223.8 64.0 326.2 302.4" -->
<!--Generator: Adobe Illustrator 29.7.1, SVG Export Plug-In . SVG Version: 2.1.1 Build 8)-->
  <defs>
    <style>
      .st0 {
        fill: #0b1f4b;
      }

      .st1, .st2 {
        fill: #fff;
      }

      .st3 {
        fill: url(#linear-gradient1);
      }

      .st4 {
        fill: url(#radial-gradient);
      }

      .st5 {
        fill: url(#radial-gradient1);
      }

      .st2 {
        font-family: MyriadPro-Bold, &apos;Myriad Pro&apos;;
        font-size: 32.7px;
        font-weight: 700;
      }

      .st6 {
        fill: #0f1f48;
        opacity: .5;
      }

      .st7 {
        fill: #c1c2c2;
      }

      .st8 {
        fill: #0c1e4c;
      }

      .st9 {
        fill: url(#linear-gradient);
      }
    </style>
    <radialGradient id="radial-gradient" cx="309.2" cy="243.9" fx="309.2" fy="243.9" r="50.8" gradientUnits="userSpaceOnUse">
      <stop offset="0" stop-color="#ecfefc"/>
      <stop offset=".2" stop-color="#31ddf7"/>
      <stop offset=".4" stop-color="#0544e6"/>
      <stop offset=".7" stop-color="#0a1e51"/>
    </radialGradient>
    <radialGradient id="radial-gradient1" cx="465.4" cy="244.6" fx="465.4" fy="244.6" r="44.4" xlink:href="#radial-gradient"/>
    <linearGradient id="linear-gradient" x1="240.3" y1="183.7" x2="533" y2="183.7" gradientUnits="userSpaceOnUse">
      <stop offset="0" stop-color="#939598"/>
      <stop offset=".5" stop-color="#e6e7e8"/>
      <stop offset=".9" stop-color="#a7a9ac"/>
    </linearGradient>
    <linearGradient id="linear-gradient1" x1="372.5" y1="310.2" x2="400.9" y2="310.2" xlink:href="#linear-gradient"/>
  </defs>
  <polygon class="st7" points="471.6 208.5 518.5 168.2 532.5 184.2 487.6 220.4 471.6 208.5"/>
  <polygon class="st7" points="241.9 184.2 277.5 211.1 290.9 194.6 255.8 166.7 241.9 184.2"/>
  <circle class="st4" cx="309.2" cy="243.9" r="50.8"/>
  <g>
    <path class="st1" d="M330.4,203.2h0s-1.2,0-1.2,0l.3-1h1.7c0,0,1,.6,1,.6l-2.7,5.2-1.2-.6,2.1-4.1Z"/>
    <path class="st1" d="M336.2,208.8c-1,1.5-2.3,2.1-3.5,1.3-1.3-.8-1-2.3-.1-3.7.9-1.4,2.3-2.1,3.5-1.3,1.3.9,1,2.4.1,3.7ZM333.7,207.1c-.8,1.1-.8,1.8-.4,2.1.4.3,1.1,0,1.8-1.2.7-1.1.9-1.8.4-2.1-.4-.3-1.1,0-1.8,1.2Z"/>
    <path class="st1" d="M340.1,212.1c-1.2,1.4-2.5,1.8-3.7.9-1.1-1-.8-2.5.3-3.7,1.1-1.3,2.5-1.8,3.7-.8,1.2,1,.7,2.5-.3,3.7ZM337.8,210.1c-.9,1-1.1,1.7-.7,2.1.4.3,1.1,0,1.9-1,.8-1,1.1-1.7.7-2-.4-.3-1.1,0-1.9,1Z"/>
    <path class="st1" d="M343.1,212.8h0s-1.1-.5-1.1-.5l.6-.9,1.6.7.8.8-4.3,3.9-.9-1,3.4-3.1Z"/>
    <path class="st1" d="M346.7,220c-1.5,1.1-2.9,1.2-3.8,0-.9-1.2-.2-2.6,1.2-3.5,1.4-1,2.9-1.2,3.8,0,.9,1.3.1,2.6-1.2,3.5ZM344.9,217.6c-1.1.8-1.4,1.4-1.1,1.8.3.4,1,.3,2.1-.5,1-.8,1.4-1.4,1.1-1.8-.3-.4-1-.3-2.1.5Z"/>
    <path class="st1" d="M349.5,221.4h0s-1-.7-1-.7l.8-.7,1.4,1,.6,1-5.1,2.9-.6-1.2,4-2.3Z"/>
    <path class="st1" d="M351.3,229.2c-1.7.7-3.1.5-3.7-.9-.6-1.4.4-2.5,1.9-3.2,1.6-.6,3.1-.5,3.7.9.6,1.4-.5,2.5-1.9,3.2ZM350.1,226.4c-1.2.5-1.7,1.1-1.5,1.5.2.5.9.5,2.2,0,1.2-.5,1.7-1,1.5-1.5-.2-.5-.9-.5-2.2,0Z"/>
    <path class="st1" d="M352.7,234.2c-1.7.5-3.1.1-3.5-1.3-.4-1.5.7-2.5,2.3-2.9,1.6-.5,3.1-.1,3.5,1.3.4,1.5-.7,2.5-2.3,2.9ZM351.9,231.3c-1.3.4-1.8.8-1.7,1.4.1.5.9.6,2.1.2,1.2-.4,1.8-.8,1.7-1.3-.1-.5-.8-.6-2.2-.3Z"/>
    <path class="st1" d="M354.8,236.4h0s-.7-1-.7-1l1-.4,1,1.4.2,1.1-5.8.9-.2-1.3,4.6-.7Z"/>
    <path class="st1" d="M353.9,244.4c-1.8,0-3.1-.6-3.1-2.1,0-1.5,1.3-2.2,2.9-2.3,1.7,0,3.1.6,3.1,2.1,0,1.6-1.3,2.2-2.9,2.3ZM353.7,241.4c-1.3,0-2,.4-1.9.9,0,.5.7.8,2,.7,1.3,0,2-.4,1.9-.9,0-.5-.7-.8-2-.7Z"/>
    <path class="st1" d="M355.4,247.1h0s-.4-1.2-.4-1.2h1c0-.1.6,1.4.6,1.4v1.1c0,0-5.9-.4-5.9-.4v-1.3c0,0,4.7.3,4.7.3Z"/>
    <path class="st1" d="M352.6,254.6c-1.8-.3-2.9-1.3-2.6-2.8.3-1.5,1.7-1.9,3.4-1.6,1.7.3,2.8,1.3,2.6,2.8-.3,1.5-1.8,1.9-3.4,1.6ZM353.1,251.6c-1.3-.3-2,0-2.1.5-.1.5.5.9,1.8,1.2,1.3.2,2,0,2.1-.4,0-.5-.5-1-1.8-1.2Z"/>
    <path class="st1" d="M353.5,257.6h0s-.2-1.2-.2-1.2h1c0,0,.2,1.8.2,1.8l-.3,1.1-5.6-1.8.4-1.3,4.4,1.4Z"/>
    <path class="st1" d="M349,264.3c-1.7-.7-2.5-1.9-1.9-3.3.6-1.4,2.1-1.4,3.6-.8,1.5.7,2.5,1.9,1.9,3.3-.6,1.4-2.2,1.4-3.6.8ZM350.2,261.5c-1.2-.6-1.9-.5-2.2,0-.2.5.3,1,1.5,1.6,1.2.5,1.9.6,2.1,0,.2-.5-.2-1-1.5-1.6Z"/>
    <path class="st1" d="M346.5,268.7c-1.6-.9-2.2-2.2-1.5-3.5.8-1.3,2.3-1.2,3.7-.3,1.5.9,2.2,2.2,1.5,3.5-.8,1.3-2.3,1.2-3.7.3ZM348,266.1c-1.1-.7-1.9-.7-2.1-.3-.3.5.2,1,1.3,1.7,1.1.7,1.8.8,2.1.3.3-.4-.1-1.1-1.3-1.7Z"/>
    <path class="st1" d="M346.2,271.8h0s.3-1.2.3-1.2l1,.4-.4,1.7-.7.9-4.6-3.6.8-1.1,3.7,2.8Z"/>
    <path class="st1" d="M339.8,276.6c-1.3-1.3-1.7-2.6-.6-3.7,1.1-1.1,2.5-.6,3.7.5,1.2,1.2,1.7,2.6.6,3.7-1.1,1.1-2.5.6-3.7-.5ZM341.9,274.4c-1-.9-1.6-1.2-2-.8-.4.4,0,1.1.9,2,.9.9,1.6,1.2,2,.8.4-.4.1-1.1-.8-2Z"/>
    <path class="st1" d="M338.9,279.6h0s.5-1.1.5-1.1l.8.7-.7,1.5-.9.7-3.7-4.5,1-.8,2.9,3.6Z"/>
    <path class="st1" d="M331.5,282.7c-1-1.5-1-3,.2-3.8,1.3-.8,2.6,0,3.5,1.4.9,1.4,1,2.9-.2,3.8-1.3.8-2.6,0-3.4-1.4ZM334,281c-.7-1.1-1.3-1.5-1.8-1.2-.4.3-.3,1,.4,2.1.7,1.1,1.3,1.5,1.8,1.2.4-.3.4-1-.4-2.1Z"/>
    <path class="st1" d="M326.9,285c-.8-1.6-.7-3.1.7-3.7,1.4-.7,2.6.3,3.3,1.8.7,1.5.7,3-.7,3.7-1.4.7-2.6-.3-3.3-1.7ZM329.6,283.6c-.6-1.2-1.1-1.6-1.6-1.4-.5.2-.4,1,.1,2.2.6,1.2,1.1,1.7,1.6,1.4.5-.2.5-.9-.1-2.2Z"/>
    <path class="st1" d="M325,287.5h0s.9-.9.9-.9l.5.9-1.2,1.2-1.1.4-1.9-5.5,1.2-.4,1.5,4.4Z"/>
    <path class="st1" d="M317,287.9c-.4-1.8,0-3.1,1.5-3.5,1.5-.3,2.4.9,2.8,2.5.4,1.7,0,3.1-1.5,3.4-1.5.3-2.4-.9-2.8-2.5ZM320,287.2c-.3-1.3-.7-1.9-1.3-1.7-.5.1-.7.8-.4,2.1.3,1.3.7,1.9,1.2,1.8.5-.1.7-.8.4-2.1Z"/>
    <path class="st1" d="M314.6,289.9h0s1.1-.6,1.1-.6l.3,1-1.5.9h-1.1c0,.1-.6-5.7-.6-5.7h1.3c0-.1.5,4.5.5,4.5Z"/>
    <path class="st1" d="M306.7,288.4c0-1.8.8-3,2.3-3,1.5,0,2.2,1.4,2.1,3,0,1.7-.8,3-2.3,3-1.6,0-2.2-1.4-2.1-3ZM309.8,288.4c0-1.3-.3-2-.8-2-.5,0-.8.7-.8,2,0,1.3.3,2,.8,2,.5,0,.9-.6.9-2Z"/>
    <path class="st1" d="M303.9,289.8h0s1.2-.4,1.2-.4v1c0,0-1.5.5-1.5.5h-1.1c0-.1.8-5.9.8-5.9l1.3.2-.6,4.6Z"/>
    <path class="st1" d="M296.6,286.6c.4-1.8,1.5-2.8,2.9-2.4,1.5.4,1.8,1.8,1.4,3.5-.4,1.6-1.4,2.8-2.9,2.4-1.5-.4-1.8-1.9-1.4-3.4ZM299.5,287.3c.3-1.3.2-2-.3-2.1-.5-.1-1,.4-1.3,1.7-.3,1.3-.2,2,.3,2.1.5.1,1-.4,1.3-1.7Z"/>
    <path class="st1" d="M293.6,287.3h0s1.2,0,1.2,0l-.2,1h-1.7c0,.1-1.1-.3-1.1-.3l2.1-5.5,1.2.5-1.6,4.3Z"/>
    <path class="st1" d="M287.2,282.5c.8-1.6,2-2.4,3.4-1.7,1.3.7,1.3,2.2.6,3.7-.8,1.5-2,2.4-3.4,1.7-1.4-.7-1.3-2.2-.6-3.7ZM289.9,283.8c.6-1.2.6-1.9.2-2.1s-1,.2-1.6,1.4c-.6,1.2-.7,1.9-.2,2.1.4.2,1-.2,1.7-1.4Z"/>
    <path class="st1" d="M284.1,282.4h0s1.2.2,1.2.2l-.4,1-1.7-.3-.9-.6,3.3-4.8,1.1.7-2.6,3.8Z"/>
    <path class="st1" d="M278.9,276.3c1.2-1.4,2.5-1.8,3.7-.9,1.1,1,.8,2.5-.3,3.7-1.1,1.3-2.5,1.8-3.7.8-1.2-1-.7-2.5.3-3.7ZM281.2,278.2c.9-1,1.1-1.7.7-2.1-.4-.3-1.1,0-1.9,1-.8,1-1.1,1.7-.7,2,.4.3,1.1,0,1.9-1Z"/>
    <path class="st1" d="M275.9,275.5h0s1.1.5,1.1.5l-.6.9-1.6-.7-.8-.8,4.3-4,.9,1-3.4,3.1Z"/>
    <path class="st1" d="M272.4,268.3c1.5-1.1,2.9-1.2,3.8,0,.9,1.2.2,2.6-1.2,3.5-1.4,1-2.9,1.2-3.8,0-.9-1.3-.1-2.6,1.2-3.5ZM274.2,270.8c1.1-.8,1.4-1.4,1.1-1.8-.3-.4-1-.3-2.1.5-1,.8-1.4,1.4-1.1,1.8.3.4,1,.3,2.1-.5Z"/>
    <path class="st1" d="M269.6,266.9h0s1,.7,1,.7l-.8.7-1.4-1-.6-1,5.1-2.9.6,1.2-4,2.3Z"/>
    <path class="st1" d="M267.8,259.1c1.7-.7,3.1-.5,3.7.9.6,1.4-.4,2.5-1.9,3.2-1.6.7-3.1.5-3.7-.9-.6-1.4.5-2.5,1.9-3.2ZM269,261.9c1.2-.5,1.7-1.1,1.5-1.5-.2-.5-.9-.5-2.2,0-1.2.5-1.7,1-1.5,1.5.2.5.9.5,2.2,0Z"/>
    <path class="st1" d="M265.4,257.1h0s.8.9.8.9l-.9.5-1.1-1.3-.3-1.1,5.6-1.6.4,1.3-4.5,1.3Z"/>
    <path class="st1" d="M265.5,249.1c1.8-.3,3.1.2,3.4,1.7.2,1.5-1,2.4-2.6,2.6-1.7.3-3.1-.2-3.3-1.7-.3-1.5,1-2.4,2.6-2.6ZM266,252.1c1.3-.2,1.9-.6,1.8-1.2,0-.5-.8-.7-2.1-.5-1.3.2-1.9.6-1.8,1.1,0,.5.8.7,2.1.5Z"/>
    <path class="st1" d="M265.2,244c1.8,0,3.1.6,3.1,2.1,0,1.5-1.3,2.2-2.9,2.3-1.7,0-3.1-.6-3.1-2.1,0-1.6,1.3-2.2,2.9-2.3ZM265.4,247c1.3,0,2-.4,1.9-.9,0-.5-.7-.8-2-.7-1.3,0-2,.4-1.9.9,0,.5.7.8,2,.8Z"/>
    <path class="st1" d="M263.6,241.3h0s.4,1.2.4,1.2l-1,.2-.6-1.6v-1.1c0,0,5.9.4,5.9.4v1.3c0,0-4.7-.3-4.7-.3Z"/>
    <path class="st1" d="M266.4,233.7c1.8.3,2.9,1.3,2.6,2.8-.3,1.5-1.7,1.9-3.4,1.6-1.7-.3-2.8-1.3-2.6-2.8.3-1.5,1.8-1.9,3.4-1.6ZM265.9,236.7c1.3.3,2,0,2.1-.5,0-.5-.5-.9-1.8-1.2-1.3-.2-2,0-2.1.4,0,.5.5,1,1.8,1.2Z"/>
    <path class="st1" d="M265.6,230.7h0s.2,1.2.2,1.2h-1c0,0-.2-1.8-.2-1.8l.3-1.1,5.6,1.8-.4,1.3-4.4-1.4Z"/>
    <path class="st1" d="M267.4,225.7h0s0,1.3,0,1.3l-1-.2v-1.7s.4-1,.4-1l5.3,2.4-.5,1.2-4.2-1.9Z"/>
    <path class="st1" d="M272.6,219.6c1.6.9,2.2,2.2,1.5,3.5-.8,1.3-2.3,1.2-3.7.3-1.5-.9-2.2-2.2-1.5-3.5.8-1.3,2.3-1.2,3.7-.3ZM271.1,222.3c1.1.7,1.9.7,2.1.3.3-.5-.2-1-1.3-1.7-1.1-.7-1.8-.8-2.1-.3-.3.4.1,1.1,1.3,1.7Z"/>
    <path class="st1" d="M275.7,215.5c1.4,1.1,2,2.4,1.1,3.6-.9,1.2-2.4.9-3.7,0-1.3-1-2-2.4-1.1-3.6,1-1.2,2.4-.9,3.7,0ZM273.9,217.9c1.1.8,1.8,1,2.1.5.3-.4,0-1.1-1.1-1.9-1-.8-1.7-1-2.1-.5-.3.4,0,1.1,1.1,1.9Z"/>
    <path class="st1" d="M276.3,212.5h0s-.4,1.2-.4,1.2l-.9-.6.6-1.6.8-.8,4.2,4.1-.9.9-3.3-3.2Z"/>
    <path class="st1" d="M283.2,208.5c1.1,1.4,1.4,2.8.2,3.8-1.2,1-2.5.3-3.6-1-1.1-1.3-1.4-2.8-.2-3.8,1.2-1,2.6-.3,3.6.9ZM280.9,210.4c.8,1,1.5,1.3,1.9,1,.4-.3.2-1-.6-2.1-.8-1-1.5-1.4-1.9-1-.4.3-.3,1,.6,2.1Z"/>
    <path class="st1" d="M284.5,205.6h0s-.7,1.1-.7,1.1l-.7-.7.9-1.4,1-.6,3.1,4.9-1.1.7-2.5-3.9Z"/>
    <path class="st1" d="M292.2,203.4c.8,1.6.7,3.1-.7,3.7-1.4.7-2.6-.3-3.3-1.8-.7-1.5-.7-3,.7-3.7,1.4-.7,2.6.3,3.3,1.7ZM289.4,204.7c.6,1.2,1.1,1.6,1.6,1.4.5-.2.4-1-.1-2.2-.6-1.2-1.1-1.7-1.6-1.4-.5.2-.5.9.1,2.2Z"/>
    <path class="st1" d="M297,201.6c.6,1.7.3,3.1-1.1,3.6-1.4.5-2.5-.6-3.1-2.1-.6-1.6-.3-3.1,1.1-3.6,1.5-.5,2.5.6,3,2.1ZM294.2,202.7c.4,1.3,1,1.8,1.5,1.6.5-.2.6-.9.1-2.2-.4-1.2-.9-1.8-1.4-1.6-.5.2-.6.9-.1,2.2Z"/>
    <path class="st1" d="M299.2,199.4h0s-1,.8-1,.8l-.4-1,1.4-1,1.1-.2,1.3,5.7-1.3.3-1-4.5Z"/>
    <path class="st1" d="M307.2,199.9c.2,1.8-.4,3.1-1.9,3.3-1.5.2-2.3-1.1-2.5-2.8-.2-1.7.4-3.1,1.9-3.2,1.6-.2,2.3,1.2,2.5,2.8ZM304.1,200.2c.1,1.3.5,1.9,1,1.9.5,0,.7-.7.6-2.1-.1-1.3-.5-1.9-1-1.9-.5,0-.8.7-.6,2.1Z"/>
    <path class="st1" d="M309.8,198.2h0l-1.1.5-.2-1,1.6-.7h1.1s0,5.9,0,5.9h-1.3s0-4.6,0-4.6Z"/>
  </g>
  <g>
    <path class="st1" d="M326,211.3h0s-1,0-1,0l.2-.8h1.3c0,0,.8.5.8.5l-2.1,4-.9-.5,1.7-3.2Z"/>
    <path class="st1" d="M330.5,215.6c-.8,1.2-1.8,1.6-2.8,1-1-.7-.8-1.8,0-2.9.7-1.1,1.8-1.6,2.8-1,1,.7.8,1.8,0,2.9ZM328.6,214.3c-.6.9-.7,1.4-.3,1.6s.8,0,1.4-.9c.6-.8.7-1.4.3-1.6-.3-.2-.8,0-1.4.9Z"/>
    <path class="st1" d="M333.6,218.2c-.9,1.1-2,1.4-2.9.7-.9-.8-.6-1.9.2-2.9.9-1,2-1.4,2.9-.6.9.8.6,1.9-.2,2.9ZM331.8,216.7c-.7.8-.8,1.3-.5,1.6.3.3.8,0,1.5-.8.7-.8.8-1.3.5-1.6-.3-.3-.8,0-1.5.8Z"/>
    <path class="st1" d="M336,218.8h0s-.9-.4-.9-.4l.5-.7,1.2.5.6.7-3.4,3.1-.7-.8,2.7-2.4Z"/>
    <path class="st1" d="M338.7,224.4c-1.1.8-2.3.9-2.9,0-.7-1-.1-2,.9-2.8,1.1-.8,2.2-.9,2.9,0,.7,1,.1,2-.9,2.7ZM337.3,222.5c-.9.6-1.1,1.1-.9,1.4.2.3.8.2,1.6-.4.8-.6,1.1-1.1.9-1.4-.2-.3-.8-.2-1.6.4Z"/>
    <path class="st1" d="M340.9,225.5h0s-.8-.6-.8-.6l.6-.5,1.1.8.4.8-4,2.2-.5-.9,3.1-1.8Z"/>
    <path class="st1" d="M342.3,231.5c-1.3.5-2.4.4-2.9-.7-.5-1.1.3-2,1.5-2.5,1.2-.5,2.4-.4,2.8.7.5,1.1-.4,2-1.5,2.5ZM341.3,229.4c-1,.4-1.3.8-1.2,1.2.2.4.7.4,1.7,0,.9-.4,1.3-.8,1.2-1.2-.2-.4-.7-.4-1.7,0Z"/>
    <path class="st1" d="M343.4,235.4c-1.4.4-2.4.1-2.8-1-.3-1.1.6-1.9,1.8-2.3,1.3-.4,2.4-.1,2.7,1,.3,1.2-.6,1.9-1.8,2.3ZM342.7,233.1c-1,.3-1.4.7-1.3,1.1.1.4.7.5,1.7.2,1-.3,1.4-.6,1.3-1-.1-.4-.7-.5-1.7-.2Z"/>
    <path class="st1" d="M345,237.2h0s-.5-.8-.5-.8l.8-.3.7,1.1v.9c.1,0-4.4.7-4.4.7l-.2-1,3.6-.6Z"/>
    <path class="st1" d="M344.3,243.3c-1.4,0-2.4-.5-2.4-1.6,0-1.2,1-1.7,2.3-1.8,1.3,0,2.4.5,2.4,1.6,0,1.2-1,1.7-2.3,1.8ZM344.1,241c-1,0-1.5.3-1.5.7,0,.4.5.6,1.6.6,1,0,1.5-.3,1.5-.7,0-.4-.5-.6-1.6-.6Z"/>
    <path class="st1" d="M345.5,245.5h0s-.3-.9-.3-.9h.8c0-.1.5,1.1.5,1.1v.9c0,0-4.6-.3-4.6-.3v-1c0,0,3.7.3,3.7.3Z"/>
    <path class="st1" d="M343.3,251.3c-1.4-.3-2.2-1-2-2.1.2-1.2,1.4-1.5,2.6-1.2,1.3.3,2.2,1,2,2.2-.2,1.2-1.4,1.5-2.6,1.2ZM343.7,249c-1-.2-1.6,0-1.6.4,0,.4.4.7,1.4.9,1,.2,1.6,0,1.6-.3,0-.4-.4-.7-1.4-.9Z"/>
    <path class="st1" d="M343.9,253.6h0s-.1-1-.1-1h.8c0,0,.2,1.4.2,1.4l-.3.8-4.3-1.4.3-1,3.4,1.1Z"/>
    <path class="st1" d="M340.5,258.8c-1.3-.6-1.9-1.5-1.5-2.5.5-1.1,1.7-1.1,2.8-.6,1.2.5,1.9,1.5,1.4,2.6-.5,1.1-1.7,1.1-2.8.6ZM341.4,256.7c-.9-.4-1.5-.4-1.7,0s.2.8,1.2,1.2c.9.4,1.5.4,1.7,0,.2-.4-.2-.8-1.1-1.2Z"/>
    <path class="st1" d="M338.5,262.3c-1.2-.7-1.7-1.7-1.1-2.7.6-1,1.8-.9,2.9-.3,1.1.7,1.7,1.7,1.1,2.7-.6,1-1.8.9-2.9.3ZM339.6,260.3c-.9-.5-1.4-.6-1.7-.2-.2.4.1.8,1,1.3.9.5,1.4.6,1.7.2.2-.3,0-.8-1-1.4Z"/>
    <path class="st1" d="M338.3,264.7h0s.2-1,.2-1l.7.3-.3,1.3-.5.7-3.6-2.8.6-.8,2.9,2.2Z"/>
    <path class="st1" d="M333.3,268.4c-1-1-1.3-2.1-.5-2.9.8-.8,1.9-.5,2.9.4.9.9,1.3,2.1.5,2.9-.9.9-2,.5-2.8-.4ZM334.9,266.7c-.7-.7-1.3-.9-1.6-.6-.3.3,0,.8.7,1.5.7.7,1.3.9,1.6.6.3-.3.1-.8-.7-1.6Z"/>
    <path class="st1" d="M332.5,270.7h0s.4-.9.4-.9l.6.5-.6,1.2-.7.6-2.9-3.5.8-.6,2.3,2.8Z"/>
    <path class="st1" d="M326.8,273.1c-.8-1.2-.8-2.3.2-2.9,1-.6,2,0,2.7,1.1.7,1.1.8,2.3-.2,2.9-1,.7-2,0-2.7-1.1ZM328.8,271.8c-.6-.9-1-1.2-1.4-.9-.3.2-.3.8.3,1.7.5.9,1,1.2,1.4,1,.3-.2.3-.8-.3-1.7Z"/>
    <path class="st1" d="M323.2,274.9c-.6-1.3-.5-2.4.5-2.9,1.1-.5,2,.2,2.6,1.4.6,1.2.5,2.4-.5,2.9-1.1.5-2-.2-2.5-1.4ZM325.3,273.8c-.4-.9-.9-1.3-1.3-1.1-.4.2-.3.7.1,1.7.4.9.9,1.3,1.3,1.1.4-.2.4-.7,0-1.7Z"/>
    <path class="st1" d="M321.7,276.8h0s.7-.7.7-.7l.4.7-1,.9-.8.3-1.5-4.3,1-.3,1.2,3.4Z"/>
    <path class="st1" d="M315.5,277.1c-.3-1.4,0-2.4,1.2-2.7,1.2-.3,1.9.7,2.2,1.9.3,1.3,0,2.4-1.2,2.7-1.2.3-1.9-.7-2.2-1.9ZM317.8,276.6c-.2-1-.6-1.5-1-1.4-.4,0-.5.6-.3,1.7.2,1,.5,1.5,1,1.4.4,0,.5-.6.3-1.7Z"/>
    <path class="st1" d="M313.6,278.7h0s.8-.5.8-.5l.3.8-1.1.7h-.9c0,0-.5-4.4-.5-4.4h1c0-.1.4,3.5.4,3.5Z"/>
    <path class="st1" d="M307.5,277.5c0-1.4.6-2.4,1.8-2.3,1.2,0,1.7,1.1,1.7,2.4,0,1.3-.6,2.3-1.8,2.3-1.2,0-1.7-1.1-1.7-2.4ZM309.9,277.5c0-1-.2-1.5-.6-1.6-.4,0-.6.5-.7,1.5,0,1,.2,1.5.6,1.6.4,0,.7-.5.7-1.5Z"/>
    <path class="st1" d="M305.3,278.6h0s.9-.3.9-.3v.8c0,0-1.2.4-1.2.4h-.9c0-.1.6-4.6.6-4.6h1c0,.1-.5,3.7-.5,3.7Z"/>
    <path class="st1" d="M299.6,276.1c.3-1.4,1.1-2.2,2.3-1.9,1.1.3,1.4,1.4,1.1,2.7-.3,1.3-1.1,2.1-2.3,1.9-1.2-.3-1.4-1.5-1.1-2.7ZM301.9,276.6c.3-1,.1-1.6-.3-1.7-.4-.1-.7.3-1,1.3-.2,1-.2,1.5.2,1.7.4,0,.8-.3,1-1.3Z"/>
    <path class="st1" d="M297.2,276.6h0s1,0,1,0v.8c-.1,0-1.4,0-1.4,0l-.8-.3,1.6-4.2,1,.4-1.3,3.4Z"/>
    <path class="st1" d="M292.3,272.8c.7-1.2,1.6-1.8,2.6-1.3,1,.5,1,1.7.4,2.9-.6,1.2-1.6,1.8-2.6,1.3-1.1-.6-1-1.7-.4-2.8ZM294.4,273.9c.5-.9.5-1.5.1-1.7-.4-.2-.8.2-1.3,1.1-.5.9-.5,1.5-.1,1.7.3.2.8-.1,1.3-1.1Z"/>
    <path class="st1" d="M289.9,272.8h0s.9.2.9.2l-.3.8-1.3-.2-.7-.5,2.6-3.8.8.6-2,3Z"/>
    <path class="st1" d="M285.9,268c.9-1.1,2-1.4,2.9-.7.9.8.6,1.9-.3,2.9-.9,1-2,1.4-2.9.6-.9-.8-.6-1.9.3-2.9ZM287.7,269.5c.7-.8.8-1.3.5-1.6s-.8,0-1.5.8c-.7.8-.8,1.3-.5,1.6.3.3.8,0,1.5-.7Z"/>
    <path class="st1" d="M283.6,267.4h0s.9.4.9.4l-.5.7-1.2-.5-.6-.7,3.4-3.1.7.8-2.7,2.4Z"/>
    <path class="st1" d="M280.8,261.8c1.1-.8,2.3-.9,2.9,0,.7,1,.1,2-.9,2.7-1.1.8-2.2.9-2.9,0-.7-1-.1-2,.9-2.7ZM282.2,263.7c.9-.6,1.1-1.1.9-1.4-.2-.3-.8-.2-1.6.4-.8.6-1.1,1.1-.9,1.4.2.3.8.2,1.6-.4Z"/>
    <path class="st1" d="M278.7,260.7h0s.8.6.8.6l-.6.5-1.1-.8-.4-.8,4-2.2.5.9-3.2,1.7Z"/>
    <path class="st1" d="M277.3,254.6c1.3-.5,2.4-.4,2.9.7.4,1.1-.3,2-1.5,2.5-1.2.5-2.4.4-2.8-.7-.5-1.1.4-2,1.5-2.5ZM278.2,256.8c1-.4,1.3-.8,1.2-1.2-.2-.4-.7-.4-1.7,0-.9.4-1.3.8-1.2,1.2.1.4.7.4,1.7,0Z"/>
    <path class="st1" d="M275.4,253h0s.6.7.6.7l-.7.4-.9-1-.2-.8,4.4-1.2.3,1-3.5,1Z"/>
    <path class="st1" d="M275.5,246.8c1.4-.2,2.4.2,2.6,1.3.2,1.2-.8,1.8-2.1,2-1.3.2-2.4-.2-2.6-1.4-.2-1.2.8-1.8,2-2ZM275.9,249.1c1-.2,1.5-.5,1.4-.9s-.6-.6-1.6-.4c-1,.2-1.5.5-1.4.9,0,.4.6.6,1.6.4Z"/>
    <path class="st1" d="M275.3,242.7c1.4,0,2.4.5,2.4,1.6,0,1.2-1,1.7-2.3,1.8-1.3,0-2.4-.5-2.4-1.6,0-1.2,1-1.7,2.3-1.8ZM275.4,245.1c1,0,1.5-.3,1.5-.7,0-.4-.5-.6-1.6-.6-1,0-1.5.3-1.5.7,0,.4.5.6,1.6.6Z"/>
    <path class="st1" d="M274.1,240.6h0s.3.9.3.9h-.8c0,.1-.5-1.1-.5-1.1v-.9c0,0,4.6.4,4.6.4v1c0,0-3.7-.3-3.7-.3Z"/>
    <path class="st1" d="M276.3,234.8c1.4.3,2.2,1,2,2.2-.2,1.2-1.4,1.5-2.6,1.2-1.3-.3-2.2-1-2-2.2.2-1.2,1.4-1.5,2.6-1.2ZM275.9,237.1c1,.2,1.6,0,1.6-.3,0-.4-.4-.7-1.4-.9-1-.2-1.6,0-1.6.3,0,.4.4.7,1.4.9Z"/>
    <path class="st1" d="M275.7,232.5h0s.1,1,.1,1h-.8c0,0-.2-1.4-.2-1.4l.3-.8,4.3,1.4-.3,1-3.4-1.1Z"/>
    <path class="st1" d="M277.1,228.6h0s0,1,0,1l-.8-.2v-1.3s.4-.8.4-.8l4.1,1.9-.4.9-3.3-1.5Z"/>
    <path class="st1" d="M281.2,223.9c1.2.7,1.7,1.7,1.1,2.7-.6,1-1.8.9-2.9.2-1.1-.7-1.7-1.7-1.1-2.7.6-1,1.8-.9,2.9-.2ZM280,225.9c.9.5,1.4.6,1.7.2.2-.4-.1-.8-1-1.3-.9-.5-1.4-.6-1.7-.2-.2.3,0,.8,1,1.4Z"/>
    <path class="st1" d="M283.6,220.7c1.1.9,1.5,1.9.8,2.8-.7.9-1.9.7-2.9,0-1-.8-1.5-1.9-.8-2.8.7-1,1.9-.7,2.9,0ZM282.2,222.5c.8.6,1.4.7,1.6.4.3-.3,0-.8-.8-1.5-.8-.6-1.3-.8-1.6-.4-.2.3,0,.8.8,1.5Z"/>
    <path class="st1" d="M284.1,218.3h0s-.3.9-.3.9l-.7-.4.4-1.3.6-.6,3.2,3.2-.7.7-2.6-2.5Z"/>
    <path class="st1" d="M289.5,215.2c.9,1.1,1,2.2.1,2.9-.9.7-2,.2-2.8-.8-.8-1-1-2.2-.1-2.9,1-.8,2-.2,2.8.8ZM287.7,216.7c.6.8,1.2,1,1.5.8.3-.3.2-.8-.5-1.6-.6-.8-1.1-1.1-1.5-.8-.3.2-.2.8.5,1.6Z"/>
    <path class="st1" d="M290.5,213h0s-.5.8-.5.8l-.6-.6.7-1.1.7-.5,2.4,3.8-.9.5-1.9-3.1Z"/>
    <path class="st1" d="M296.5,211.3c.6,1.3.5,2.4-.5,2.9-1.1.5-2-.2-2.5-1.4-.6-1.2-.5-2.4.5-2.9,1.1-.5,2,.2,2.5,1.4ZM294.4,212.4c.4.9.9,1.3,1.3,1.1.4-.2.4-.7,0-1.7-.4-.9-.9-1.3-1.2-1.1-.4.2-.4.7,0,1.7Z"/>
    <path class="st1" d="M300.3,210c.5,1.3.2,2.4-.9,2.8-1.1.4-1.9-.5-2.4-1.7-.4-1.2-.2-2.4.9-2.8,1.2-.4,2,.5,2.4,1.7ZM298.1,210.8c.3,1,.7,1.4,1.1,1.2.4-.1.4-.7.1-1.7-.3-1-.7-1.4-1.1-1.2-.4.1-.5.7-.1,1.7Z"/>
    <path class="st1" d="M302,208.2h0s-.8.6-.8.6l-.3-.7,1.1-.8.9-.2,1,4.4-1,.2-.8-3.5Z"/>
    <path class="st1" d="M308.2,208.7c.1,1.4-.3,2.4-1.5,2.5-1.2.1-1.8-.9-1.9-2.2-.1-1.3.3-2.4,1.5-2.5,1.2-.1,1.8.9,1.9,2.2ZM305.9,208.9c0,1,.4,1.5.8,1.5.4,0,.6-.6.5-1.6,0-1-.4-1.5-.8-1.5-.4,0-.6.6-.5,1.6Z"/>
    <path class="st1" d="M310.3,207.4h0l-.9.4-.2-.8,1.2-.5h.9s0,4.6,0,4.6h-1s0-3.6,0-3.6Z"/>
  </g>
  <circle class="st5" cx="465.4" cy="244.6" r="44.4"/>
  <polygon class="st0" points="223.8 144 223.8 64 387.4 222.4 550 65 550 145 400.3 273 418.9 312.2 387.9 366.4 354.4 310.7 374.5 273.5 223.8 144"/>
  <circle class="st6" cx="464.9" cy="241.2" r="28.8"/>
  <text class="st2" transform="translate(450.6 256.7)"><tspan x="0" y="0">AI</tspan></text>
  <polygon class="st9" points="240.3 137.8 240.9 103.7 387.4 243.6 532.5 103.2 533 137.3 387.9 264.2 240.3 137.8"/>
  <path class="st0" d="M387.4,203.9l-72.3-72.3s62.5-24.3,142.5-.5l-70.2,72.8Z"/>
  <path class="st0" d="M246,160.5s-40.8,36.1-38.2,93.4c0,0,.5,51.6,38.2,86.7l140.9,106.8,132.6-98.6s34.1-27.4,45.9-75.4c0,0,13.4-66.1-36.6-112.5l-11.9,10.3s33.5,24.8,34.6,75.9c0,0,4.6,56.8-56.8,100.6l-106.8,81-109.4-81.5s-50.6-41.8-55.7-87.7c0,0-5.7-52.1,34.6-88.8l-11.4-10.3Z"/>
  <path class="st0" d="M358.5,315.3s-65.5,59.9-130.1-24.8l30.5,51.1s30.5,12.4,61.4,8.3c0,0,29.9-5.7,45.4-22.7l-7.2-11.9Z"/>
  <path class="st0" d="M407.6,328.2s24.3,23.7,60.9,21.7c0,0,40.8,0,60.9-21.2l3.1-17s-25.8,27.4-74.3,23.2c0,0-26.3-1.5-44.4-21.7l-6.2,15Z"/>
  <polygon class="st3" points="387.4 337 372.5 312.8 387.4 283.3 400.9 312.2 387.4 337"/>
  <path class="st0" d="M318.3,358.7s22.7,1.5,39.2-11.4l29.9,36.6,28.9-36.1s21.7,12.4,37.7,11.4l-67.1,53.2-68.6-53.7Z"/>
</svg>
