<?xml version="1.0" encoding="UTF-8"?>
<svg id="Layer_1" xmlns="http://www.w3.org/2000/svg" width="136.8068" height="24.8838" viewBox="13 -5 146.8068 34.8838"
>
  <defs>
    <style>
      .cls-1{fill:#4d4d4d;}.cls-1,.cls-2{stroke-width:0px;}.cls-2{fill:#25c1c1;}
    </style>
  </defs>
  <path class="cls-1" d="m15.6919,3.9963c-1.2165-.8475-2.6608-1.2712-4.3341-1.2712-1.4284,0-2.6497.2675-3.665.8024-1.0152.5359-1.8521,1.2558-2.5098,2.1589-.6586.904-1.1437,1.9365-1.4557,3.0955-.313,1.1609-.4688,2.366-.4688,3.6151,0,1.3613.1558,2.6497.4688,3.8653.312,1.2165.7971,2.2759,1.4557,3.1789.6576.904,1.5003,1.623,2.5266,2.1589s2.2533.8034,3.6817.8034c1.0483,0,1.9796-.1726,2.7945-.5186.8139-.3461,1.5166-.8254,2.1081-1.439.591-.6135,1.0545-1.344,1.3891-2.1925.3346-.8475.5354-1.762.6025-2.7447h3.1794c-.313,3.0121-1.3503,5.3551-3.1128,7.0289-1.7625,1.6729-4.1721,2.5098-7.2288,2.5098-1.8521,0-3.4694-.3183-4.8527-.9539-1.3838-.6356-2.5323-1.5118-3.4469-2.6277-.9155-1.1149-1.6014-2.4312-2.0582-3.9487-.4578-1.5166-.6864-3.1463-.6864-4.8863s.2454-3.3745.7363-4.9026,1.2103-2.8616,2.1589-3.9995c.9481-1.1379,2.1301-2.0362,3.5475-2.6938C7.9383.3764,9.5613.0475,11.3914.0475c1.2491,0,2.4316.1668,3.5475.5014,1.1154.3355,2.1081.8264,2.9786,1.4735.87.6471,1.5947,1.4552,2.1752,2.4264.58.9702.9591,2.0908,1.1379,3.363h-3.1794c-.3571-1.6949-1.1437-2.9671-2.3593-3.8155Z"/>
  <path class="cls-1" d="m24.5433,12.3127c.3566-1.1044.892-2.063,1.6062-2.8779.7137-.8139,1.5947-1.4552,2.644-1.924,1.0483-.4688,2.2533-.7027,3.6146-.7027,1.3829,0,2.5937.2339,3.6309.7027s1.913,1.1101,2.6272,1.924c.7137.8149,1.2491,1.7735,1.6062,2.8779.3566,1.1044.5354,2.2931.5354,3.5643,0,1.2721-.1788,2.4551-.5354,3.548-.3571,1.0929-.8925,2.0467-1.6062,2.8616-.7142.8149-1.5899,1.4505-2.6272,1.9077-1.0373.4563-2.2481.6854-3.6309.6854-1.3613,0-2.5663-.2291-3.6146-.6854-1.0493-.4573-1.9303-1.0929-2.644-1.9077-.7142-.8149-1.2496-1.7687-1.6062-2.8616-.3571-1.0929-.5354-2.2759-.5354-3.548,0-1.2712.1783-2.4599.5354-3.5643Zm2.8947,6.3588c.279.8149.6639,1.4955,1.1547,2.042.4904.5464,1.0651.9654,1.7237,1.2549.6576.2905,1.3551.4352,2.0918.4352.7363,0,1.4332-.1448,2.0913-.4352.6581-.2895,1.2328-.7085,1.7237-1.2549.4904-.5464.8753-1.2271,1.1547-2.042.2785-.8139.4185-1.7448.4185-2.7945,0-1.0478-.14-1.9796-.4185-2.7945-.2795-.8139-.6644-1.5003-1.1547-2.0582-.4908-.557-1.0656-.9807-1.7237-1.2712-.6581-.2895-1.3551-.4352-2.0913-.4352-.7367,0-1.4342.1457-2.0918.4352-.6586.2905-1.2333.7142-1.7237,1.2712-.4908.5579-.8757,1.2443-1.1547,2.0582-.279.8149-.4185,1.7467-.4185,2.7945,0,1.0497.1395,1.9806.4185,2.7945Z"/>
  <path class="cls-1" d="m47.1667.616v23.8956h-2.8444V.616h2.8444Z"/>
  <path class="cls-1" d="m54.5959.616v23.8956h-2.8444V.616h2.8444Z"/>
  <path class="cls-1" d="m80.5661.616v8.9357h.0666c.4688-.9587,1.205-1.6566,2.2092-2.0918,1.0037-.4343,2.1081-.6519,3.3131-.6519,1.3388,0,2.504.2454,3.4972.7363.9927.4908,1.8181,1.1542,2.4767,1.9911.6576.8369,1.1547,1.8023,1.4893,2.8952.3346,1.0929.5019,2.2538.5019,3.4799,0,1.228-.162,2.388-.4851,3.4809-.324,1.0938-.8149,2.0477-1.4725,2.8616-.6586.8149-1.4845,1.4552-2.4767,1.924-.9932.4688-2.1479.7027-3.4641.7027-.4237,0-.8983-.0451-1.4222-.1333-.5244-.0901-1.043-.2349-1.5564-.4352-.5134-.2013-.9984-.4736-1.4557-.8206-.4573-.3451-.8422-.7746-1.1547-1.2884h-.0666v2.3094h-2.8448V.616h2.8448Zm10.2241,12.7349c-.2123-.7698-.5354-1.4562-.9706-2.0582-.4352-.603-.9932-1.0823-1.6733-1.439-.6807-.3566-1.4783-.5359-2.3928-.5359-.9596,0-1.774.1898-2.4432.5685-.6691.3796-1.2165.8762-1.6398,1.4898-.4242.6135-.731,1.3105-.9203,2.0918-.1898.7813-.2847,1.5732-.2847,2.3756,0,.8484.1007,1.669.3015,2.4599.2008.7928.5186,1.4898.9539,2.0918.4348.603.998,1.0881,1.6896,1.4562s1.5281.5522,2.5103.5522,1.8013-.1898,2.4599-.5694c.6576-.3787,1.1878-.881,1.5895-1.5061.4017-.6241.6917-1.3383.8705-2.1417.1783-.8034.2675-1.6278.2675-2.4762,0-.8034-.1059-1.5895-.3178-2.3593Z"/>
  <path class="cls-1" d="m73.505,5.5244v18.9873h-2.8448v-2.3094s-.0666,0-.0666,0c-.3125.5138-.6974.9433-1.1547,1.2884-.4573.347-.9424.6193-1.4557.8206-.5134.2004-1.032.3451-1.5564.4352-.5239.0882-.9984.1333-1.4222.1333-1.3162,0-2.471-.2339-3.4641-.7027-.9922-.4688-1.8181-1.1092-2.4767-1.924-.6576-.8139-1.1485-1.7678-1.4725-2.8616-.3231-1.0929-.4851-2.2529-.4851-3.4809,0-1.2261.1673-2.3871.5019-3.4799s.8316-2.0582,1.4893-2.8952c.6586-.8369,1.484-1.5003,2.4767-1.9911.9932-.4908,2.1584-.7363,3.4972-.7363,1.205,0,2.3094.2176,3.3131.6519,1.0042.4352,1.7405,1.1331,2.2092,2.0918h.0666l2.8448-4.0273h0Zm-13.3868,10.1858c0,.8484.0892,1.6729.2675,2.4762.1788.8034.4688,1.5176.8705,2.1417.4017.625.9318,1.1274,1.5895,1.5061.6586.3796,1.4783.5694,2.4599.5694s1.8186-.1841,2.5103-.5522,1.2549-.8532,1.6896-1.4562c.4352-.602.753-1.299.9539-2.0918.2008-.7909.3015-1.6115.3015-2.4599,0-.8024-.0949-1.5943-.2847-2.3756-.1893-.7813-.4961-1.4783-.9203-2.0918-.4232-.6135-.9706-1.1101-1.6398-1.4898-.6691-.3787-1.4835-.5685-2.4432-.5685-.9146,0-1.7122.1793-2.3928.5359-.6802.3566-1.2381.836-1.6733,1.439-.4352.602-.7583,1.2884-.9706,2.0582-.2119.7698-.3178,1.5559-.3178,2.3593Z"/>
  <path class="cls-2" d="m130.2805.74h6.3979v23.8094h-6.3979V.74Z"/>
  <path class="cls-2" d="m120.2518,24.5494h5.7818L115.9396.74h-6.2104l-9.6994,23.8094h5.6077l1.5162-3.6144h11.5064l1.5918,3.6144Zm-10.8844-8.8921l3.3991-8.103,3.5689,8.103h-6.968Z"/>
</svg>
