<?xml version="1.0" encoding="UTF-8"?><svg id="Layer_1" xmlns="http://www.w3.org/2000/svg" width="863.0022" height="105.4401" xmlns:xlink="http://www.w3.org/1999/xlink" viewBox="0 0 863.0022 105.4401"><defs><style>.cls-1{fill:#4d4d4d;}.cls-1,.cls-2,.cls-3{stroke-width:0px;}.cls-2{fill:url(#linear-gradient);}.cls-3{fill:url(#linear-gradient-2);}</style><linearGradient id="linear-gradient" x1="627.0409" y1="321.85" x2="722.0342" y2="321.85" gradientTransform="translate(0 368) scale(1 -1)" gradientUnits="userSpaceOnUse"><stop offset="0" stop-color="#565faa"/><stop offset="1" stop-color="#565faa"/></linearGradient><linearGradient id="linear-gradient-2" x1="730.7996" y1="309.3884" x2="750.2493" y2="309.3884" gradientTransform="translate(0 368) scale(1 -1)" gradientUnits="userSpaceOnUse"><stop offset="0" stop-color="#565faa"/><stop offset="1" stop-color="#565faa"/></linearGradient></defs><g id="Layer_2"><g id="Layer_1-2"><path class="cls-1" d="m58.0316,68.9829c.7921,0,1.472.3084,2.0468.9182l5.7057,6.1894c-3.1578,3.9113-7.0445,6.9079-11.6533,8.9897-4.6122,2.0818-10.1497,3.1227-16.609,3.1227-5.7793,0-10.9734-.9883-15.5821-2.9615-4.6122-1.9732-8.5516-4.7174-11.818-8.2362-3.2664-3.5153-5.7688-7.7139-7.5107-12.5961C.8691,59.527,0,54.1999,0,48.4206,0,42.5712.9708,37.2159,2.9089,32.3513c1.9381-4.8611,4.6648-9.0528,8.1801-12.5715,3.5188-3.5153,7.728-6.2525,12.6241-8.2081,4.8996-1.9556,10.311-2.9335,16.2305-2.9335,5.7793,0,10.8297.9253,15.1545,2.7723,4.3249,1.847,8.0294,4.2968,11.1171,7.3494l-4.8436,6.7291c-.2874.4276-.6554.8061-1.104,1.1285-.4486.3224-1.0689.4837-1.8575.4837-.8271,0-1.6683-.3224-2.5304-.9673-.8622-.6449-1.9556-1.3458-3.2839-2.0993s-3.0071-1.4545-5.0328-2.0993c-2.0292-.6449-4.6017-.9708-7.7245-.9708-3.6625,0-7.027.6379-10.0937,1.9136-3.0702,1.2722-5.7057,3.0947-7.9137,5.4639s-3.9288,5.2466-5.1695,8.6392c-1.2372,3.3926-1.8575,7.2058-1.8575,11.4395,0,4.3774.6203,8.2712,1.8575,11.6813,1.2407,3.4101,2.9159,6.2805,5.0328,8.6147,2.1169,2.3307,4.6122,4.1181,7.4826,5.3552,2.8739,1.2372,5.9581,1.8575,9.2595,1.8575,1.9732,0,3.7606-.1086,5.3588-.3224,1.5947-.2173,3.0667-.5573,4.4125-1.0234s2.6215-1.0689,3.8237-1.8049c1.2021-.7325,2.3937-1.6402,3.5783-2.7162.3575-.3224.736-.5853,1.132-.7816.3925-.1963.8236-.2979,1.2897-.2979h0Z"/><path class="cls-1" d="m99.5348,31.2473c4.1286,0,7.8682.6659,11.2257,1.9907,3.354,1.3283,6.2174,3.2139,8.5866,5.6532,2.3692,2.4428,4.1987,5.4218,5.4884,8.9371,1.2933,3.5188,1.9381,7.4476,1.9381,11.79,0,4.3774-.6449,8.3273-1.9381,11.8425-1.2897,3.5188-3.1192,6.5153-5.4884,8.9897-2.3692,2.4779-5.2326,4.3809-8.5866,5.7057-3.3575,1.3283-7.0971,1.9942-11.2257,1.9942-4.1251,0-7.8787-.6659-11.2502-1.9942-3.3751-1.3248-6.2525-3.2279-8.6392-5.7057-2.3867-2.4743-4.2372-5.4709-5.5445-8.9897-1.3108-3.5153-1.9662-7.4651-1.9662-11.8425,0-4.3424.6554-8.2712,1.9662-11.79,1.3073-3.5153,3.1578-6.4943,5.5445-8.9371,2.3867-2.4393,5.2641-4.3249,8.6392-5.6532,3.3716-1.3248,7.1251-1.9907,11.2502-1.9907Zm0,46.6727c4.5947,0,7.9943-1.5421,10.2023-4.6298,2.208-3.0842,3.312-7.6088,3.312-13.5634,0-5.9581-1.104-10.5002-3.312-13.6229-2.208-3.1192-5.6076-4.6823-10.2023-4.6823-4.6648,0-8.11,1.5701-10.3355,4.7104s-3.3365,7.6719-3.3365,13.5949c0,5.9195,1.111,10.4336,3.3365,13.5388,2.2255,3.1017,5.6707,4.6543,10.3355,4.6543h0Z"/><path class="cls-1" d="m137.1687,87.3408v-55.2313h8.1275c1.7208,0,2.8529.8061,3.3926,2.4218l.8587,4.09c.9708-1.076,1.9837-2.0608,3.0421-2.958,1.0584-.8972,2.1905-1.6718,3.3926-2.3166s2.4919-1.1566,3.8762-1.5351c1.3809-.375,2.8984-.5643,4.5492-.5643,3.4802,0,6.3436.9428,8.5866,2.8283,2.2395,1.882,3.9183,4.3844,5.0328,7.5072.8622-1.8295,1.9381-3.3996,3.2279-4.7104,1.2933-1.3073,2.7092-2.3762,4.2548-3.2033,1.5421-.8236,3.1823-1.4334,4.9242-1.8295,1.7419-.3925,3.4907-.5923,5.2501-.5923,3.0491,0,5.7583.4661,8.1275,1.3984,2.3692.9358,4.3599,2.2991,5.9756,4.0935s2.8459,3.9814,3.687,6.5679c.8446,2.583,1.2652,5.5445,1.2652,8.881v35.1526h-13.297v-35.1526c0-3.5153-.771-6.1648-2.3131-7.9382-1.5456-1.7769-3.8062-2.6671-6.7817-2.6671-1.3669,0-2.6321.2348-3.7956.7009-1.1671.4661-2.1905,1.139-3.0702,2.0187s-1.5701,1.9837-2.0713,3.312c-.5047,1.3283-.7535,2.8529-.7535,4.5737v35.1526h-13.3531v-35.1526c0-3.694-.743-6.3856-2.2325-8.0749-1.4895-1.6858-3.687-2.5304-6.5959-2.5304-1.8996,0-3.687.4766-5.3552,1.4264-1.6683.9533-3.2209,2.2536-4.6578,3.9043v40.4272h-13.2937Z"/><path class="cls-1" d="m227.8224,105.3762V32.1095h8.1275c.8622,0,1.5947.1963,2.208.5923.6098.396,1.0024,1.0059,1.1846,1.8295l1.076,5.1134c2.2255-2.5479,4.7805-4.6087,7.6719-6.1894,2.8879-1.5806,6.27-2.3692,10.1462-2.3692,3.0141,0,5.7688.6273,8.2642,1.8856,2.4919,1.2547,4.6473,3.0772,6.4592,5.4639,1.812,2.3867,3.2103,5.3272,4.1987,8.8285.9848,3.4977,1.479,7.5072,1.479,12.0318,0,4.1251-.5573,7.9488-1.6683,11.464-1.111,3.5188-2.6987,6.5679-4.7629,9.1544-2.0643,2.583-4.5597,4.6017-7.4826,6.0562-2.9265,1.451-6.1999,2.18-9.8238,2.18-3.1227,0-5.7723-.4766-7.9418-1.4264-2.1729-.9533-4.1181-2.2711-5.8424-3.9569v22.6091h-13.2935,0Zm25.837-63.7934c-2.7617,0-5.1239.5853-7.0796,1.7489-1.9556,1.1671-3.7746,2.8108-5.4639,4.9277v24.761c1.5105,1.868,3.1508,3.1683,4.9277,3.9043s3.687,1.104,5.7338,1.104c2.0082,0,3.8307-.3785,5.4639-1.132,1.6332-.7535,3.0141-1.8996,4.1426-3.4452,1.132-1.5421,2.0012-3.4872,2.611-5.8389.6098-2.3517.9182-5.1239.9182-8.3168,0-3.2314-.2629-5.9686-.7816-8.2116-.5222-2.243-1.2652-4.062-2.236-5.4639-.9673-1.3984-2.1449-2.4218-3.5258-3.0667-1.3809-.6484-2.951-.9708-4.7104-.9708h0Z"/><path class="cls-1" d="m302.8625,7.345v79.9958h-13.297V7.345h13.297Z"/><path class="cls-1" d="m337.4789,102.5233c-.396.9323-.9077,1.6402-1.5351,2.1239-.6273.4872-1.5876.729-2.8809.729h-9.9044l10.3355-22.1255-22.3392-51.1412h11.6252c1.076,0,1.9031.2523,2.4779.7535.5748.5012,1.0024,1.076,1.2897,1.7208l11.79,28.6408c.396.9323.736,1.9031,1.0234,2.9054.2874,1.0059.5397,2.0117.7535,3.0176.2874-1.0409.6028-2.0468.9428-3.0176.34-.9673.708-1.9556,1.104-2.958l11.089-28.5882c.2874-.715.7605-1.3073,1.4264-1.7734.6624-.4661,1.4089-.7009,2.236-.7009h10.6579l-30.0917,70.4138h0Z"/><path class="cls-1" d="m417.7936,23.656c-.396.7921-.8552,1.3458-1.3739,1.6718-.5222.3224-1.139.4837-1.8575.4837s-1.5246-.2769-2.4218-.8341c-.8972-.5573-1.9556-1.1776-3.1753-1.8575-1.2232-.6834-2.6496-1.3003-4.2828-1.8575-1.6332-.5573-3.5608-.8341-5.7863-.8341-2.0082,0-3.7606.2418-5.2466.7255-1.4895.4837-2.7477,1.1566-3.7711,2.0187-1.0199.8622-1.7839,1.8926-2.2851,3.0947-.5047,1.2056-.7535,2.5234-.7535,3.9569,0,1.833.5082,3.3575,1.5316,4.5772s2.3797,2.2606,4.0655,3.1227c1.6858.8622,3.6064,1.6332,5.7618,2.3131,2.1519.6834,4.3494,1.4089,6.5924,2.18,2.243.7745,4.4405,1.6683,6.5959,2.6916,2.1519,1.0234,4.0725,2.3166,5.7583,3.8762,1.6858,1.5631,3.0421,3.4732,4.0655,5.7338s1.5351,5.0083,1.5351,8.2362c0,3.5188-.6028,6.8097-1.8049,9.8799-1.2021,3.0667-2.9615,5.7408-5.2746,8.0189-2.3166,2.2816-5.1415,4.076-8.478,5.3833-3.34,1.3108-7.1602,1.9662-11.4675,1.9662-2.4779,0-4.9172-.2418-7.3214-.7255-2.4043-.4872-4.7104-1.1776-6.9184-2.0748s-4.2688-1.9732-6.1894-3.2279c-1.9206-1.2582-3.6344-2.6566-5.1415-4.1987l4.1987-6.9464c.396-.5012.8692-.9217,1.4264-1.2652.5573-.34,1.1741-.5117,1.8575-.5117.8972,0,1.8645.368,2.9054,1.104s2.2711,1.5526,3.6905,2.4498c1.4159.8972,3.0842,1.7138,5.0048,2.4498s4.2267,1.104,6.9184,1.104c4.1251,0,7.3214-.9778,9.582-2.9335,2.2606-1.9556,3.3926-4.7665,3.3926-8.4254,0-2.0468-.5117-3.715-1.5351-5.0083-1.0234-1.2897-2.3797-2.3762-4.0655-3.2559s-3.6064-1.6227-5.7583-2.2325c-2.1554-.6098-4.3424-1.2757-6.5679-1.9942-2.2255-.715-4.416-1.5771-6.5679-2.583-2.1554-1.0059-4.076-2.3131-5.7618-3.9288s-3.0421-3.6344-4.062-6.0562c-1.0234-2.4218-1.5351-5.4113-1.5351-8.9651,0-2.8318.5643-5.5971,1.6963-8.2887,1.1285-2.6916,2.7793-5.0784,4.9522-7.1602,2.1694-2.0818,4.8365-3.7501,7.9943-5.0048,3.1578-1.2582,6.7642-1.8856,10.8191-1.8856,4.5947,0,8.8285.7185,12.7047,2.1519,3.8762,1.4369,7.1777,3.4452,9.9044,6.0317l-3.5503,6.8343.0002-.0003Z"/><path class="cls-1" d="m452.6798,102.5233c-.396.9323-.9077,1.6402-1.5351,2.1239-.6273.4872-1.5876.729-2.8809.729h-9.9044l10.3355-22.1255-22.3392-51.1412h11.6252c1.076,0,1.9031.2523,2.4779.7535s1.0024,1.076,1.2897,1.7208l11.79,28.6408c.396.9323.736,1.9031,1.0234,2.9054.2874,1.0059.5397,2.0117.7535,3.0176.2874-1.0409.6028-2.0468.9428-3.0176.34-.9673.708-1.9556,1.104-2.958l11.089-28.5882c.2874-.715.7605-1.3073,1.4264-1.7734.6624-.4661,1.4089-.7009,2.236-.7009h10.6579l-30.0917,70.4138h0Z"/><path class="cls-1" d="m490.5241,87.3408v-55.2313h8.1275c1.7208,0,2.8529.8061,3.3926,2.4218l.9147,4.3599c1.111-1.1461,2.2851-2.187,3.5258-3.1227,1.2372-.9323,2.5479-1.7384,3.9288-2.4218,1.3809-.6799,2.8634-1.2021,4.4405-1.5596,1.5806-.361,3.3015-.5397,5.1695-.5397,3.0141,0,5.6882.5117,8.0189,1.5351,2.3342,1.0234,4.2828,2.4568,5.8424,4.3073,1.5596,1.847,2.7442,4.055,3.5538,6.6205.8061,2.5655,1.2091,5.3938,1.2091,8.478v35.1526h-13.297v-35.1526c0-3.3716-.7781-5.9826-2.3412-7.8331-1.5596-1.847-3.9008-2.7723-7.0235-2.7723-2.2991,0-4.451.5222-6.4592,1.5631-2.0117,1.0409-3.9148,2.4568-5.7092,4.2513v39.9436h-13.2935Z"/><path class="cls-1" d="m590.5425,43.7908c-.396.5047-.7816.8972-1.1566,1.1846-.3785.2874-.9253.4311-1.6437.4311-.6799,0-1.3458-.2068-1.9907-.6203-.6449-.4101-1.4194-.8797-2.3131-1.3984-.9007-.5222-1.9662-.9883-3.2033-1.4019-1.2407-.4101-2.7723-.6168-4.6052-.6168-2.3307,0-4.3774.4206-6.1368,1.2652-1.7594.8411-3.2209,2.0538-4.3879,3.6344-1.1636,1.5771-2.0363,3.4907-2.6075,5.7303-.5748,2.243-.8622,4.784-.8622,7.6193,0,2.944.3119,5.562.9428,7.8576.6273,2.2991,1.5316,4.2267,2.7162,5.7898,1.1846,1.5596,2.6215,2.7442,4.3073,3.5503,1.6858.8096,3.5889,1.2126,5.7057,1.2126s3.8307-.2594,5.1415-.7816c1.3108-.5187,2.4148-1.0935,3.312-1.7208s1.6753-1.2021,2.3412-1.7243c.6624-.5187,1.4089-.7816,2.2325-.7816,1.0795,0,1.8856.4136,2.4253,1.2407l3.8202,4.8436c-1.472,1.7243-3.0667,3.1683-4.791,4.3354-1.7208,1.1671-3.5082,2.0993-5.3552,2.7968-1.8505.7009-3.7606,1.1951-5.7338,1.4825s-3.9288.4311-5.8669.4311c-3.4101,0-6.624-.6379-9.638-1.9136-3.0141-1.2722-5.6426-3.1297-7.8857-5.569-2.243-2.4428-4.0199-5.4288-5.3307-8.9651-1.3108-3.5328-1.9627-7.5632-1.9627-12.0844,0-4.055.5818-7.8156,1.7489-11.2783,1.1671-3.4627,2.8809-6.4592,5.1415-8.9897,2.2606-2.5304,5.0609-4.5141,8.3974-5.9476,3.3365-1.4369,7.1777-2.1554,11.5201-2.1554,4.1251,0,7.742.6659,10.8472,1.9907,3.1052,1.3283,5.895,3.2314,8.3693,5.7092l-3.4977,4.8436h-.0004Z"/><path class="cls-2" d="m700.9131,89.6384h21.1211L685.1604,2.6616h-22.687l-35.4325,86.9768h20.4851l5.5386-13.2034h42.0335l5.815,13.2034Zm-39.761-32.4834l12.4169-29.6005,13.0374,29.6005h-25.4544.0001Z"/><path class="cls-3" d="m730.7996,27.9342h19.4497v61.3548h-19.4497V27.9342Z"/><path class="cls-1" d="m769.6989,2.4894v19.315h-57.33V2.4894h57.33Z"/><path class="cls-1" d="m817.443,0c-25.1616,0-45.5592,20.3976-45.5592,45.5592s20.3976,45.5591,45.5592,45.5591,45.5592-20.3975,45.5592-45.5591S842.6047,0,817.443,0Zm0,71.5515c-14.3551,0-25.9923-11.6371-25.9923-25.9923s11.6372-25.9923,25.9923-25.9923,25.9923,11.6371,25.9923,25.9923-11.6372,25.9923-25.9923,25.9923Z"/></g></g></svg>