<?xml version="1.0" encoding="UTF-8"?>
<svg id="Layer_2" xmlns="http://www.w3.org/2000/svg" width="200.6761" height="66" viewBox="0 0 200.6761 66">
  <defs>
    <style>
      .cls-1{fill:#55b04d;}.cls-1,.cls-2,.cls-3,.cls-4{stroke-width:0px;}.cls-2{fill:#0a7f36;}.cls-3{fill:#8cbf44;}.cls-4{fill:#414042;}
    </style>
  </defs>
  <g id="Layer_1-2">
    <path class="cls-1" d="m159.168,32.9999l24.1615-15.3675L160.0147.8936c-3.2291-2.3185-8.0814.1443-8.4532,4.2897l-1.8842,21.0028,9.4907,6.8138Z"/>
    <path class="cls-3" d="m148.4545,39.8139l-1.8843,21.0021c-.3718,4.146,4.0385,6.6089,7.6838,4.2904l26.3184-16.7394-21.4043-15.3669-10.7137,6.8138Z"/>
    <path class="cls-2" d="m183.3298,17.6324l-24.1617,15.3675,21.4043,15.3675,17.4167-11.0771c3.2252-2.0517,3.6273-6.529.7694-8.5808l-15.4287-11.0771Z"/>
    <path class="cls-4" d="m132.4356,48.3964l3.0059,5.719h2.6545l-2.9474-5.7776-2.713.0586Zm-1.6006-1.4054l.5856-4.8992h2.1276c.4944,0,.8945.0848,1.2005.2537.3056.1692.5368.3806.6929.6344s.2568.5206.3025.8003c.0454.28.0488.5367.0098.771-.0262.3254-.14.6801-.3416,1.0638-.2018.384-.5074.7094-.9173.9759-.4099.2669-.9534.4002-1.6299.4002h-2.0299Zm-1.4054-7.0854l-1.7372,14.2097h2.2642l.6051-4.9382h2.069c.9238,0,1.711-.1397,2.3618-.4197.6505-.2797,1.197-.6441,1.6395-1.093.4422-.4489.7807-.9531,1.015-1.5127.2343-.5593.3904-1.119.4685-1.6786.0909-.7286.0454-1.3761-.1367-1.9421-.1823-.566-.4816-1.0443-.8978-1.4346-.4166-.3904-.9339-.6862-1.5518-.8881-.6182-.2016-1.3175-.3026-2.0983-.3026h-4.0014Zm-12.8922,11.7894c-.5532-.247-1.0281-.5886-1.4249-1.0247-.3971-.4358-.706-.9369-.9272-1.5029-.2214-.566-.3318-1.1614-.3318-1.786,0-.5984.0976-1.2132.2928-1.8445.1952-.631.5075-1.22.9369-1.7665s.9789-.9857,1.6493-1.3175c.67-.3318,1.4737-.4977,2.4106-.4977.6637,0,1.2718.1238,1.825.3708.553.2474,1.0346.5889,1.4444,1.0248.4099.4361.7286.9338.9564,1.4932.2276.5596.3416,1.1583.3416,1.7958,0,.5987-.1043,1.2135-.3124,1.8445-.2083.6313-.527,1.2169-.9564,1.7567-.4293.5401-.9826.9793-1.659,1.3175-.6767.3386-1.4835.5075-2.4203.5075-.6637,0-1.2721-.1235-1.825-.3709Zm5.192,1.8445c.9692-.4748,1.7729-1.0961,2.4105-1.864.6375-.7677,1.1157-1.6036,1.4346-2.5082.3187-.9043.4783-1.786.4783-2.6448,0-1.1449-.1922-2.1404-.5758-2.9864-.384-.8457-.9046-1.5484-1.5615-2.108-.6572-.5594-1.3892-.976-2.1958-1.2492-.8071-.2733-1.6332-.4099-2.4789-.4099-1.2882,0-2.4173.2376-3.3865.7124-.9695.4752-1.7762,1.0965-2.4203,1.8641-.6441.7679-1.1256,1.6073-1.4444,2.5179-.319.911-.4782,1.7958-.4782,2.6546,0,1.1321.1952,2.1211.5856,2.9669.3903.846.9107,1.5487,1.5615,2.108.6505.5596,1.3825.976,2.1958,1.2492.8131.2733,1.6362.4099,2.4692.4099,1.3011,0,2.4365-.2372,3.406-.7124Zm-20.1531-11.4087h3.5328l-1.4834,11.9845h2.3422l1.4835-11.9845h3.611l.2928-2.2252h-9.5056l-.2733,2.2252Zm-10.3061,8.6469h6.3241l-.527-1.9519h-4.8797l-.9173,1.9519Zm5.1334-8.9591l-1.7763,1.093,3.0645,11.2038h2.6155l-4.4698-14.7953h-.1366l-8.1003,14.7953h2.2252l6.5778-12.2968Zm-15.1662,6.5778l3.0059,5.719h2.6546l-2.9474-5.7776-2.7131.0586Zm-1.6006-1.4054l.5856-4.8992h2.1276c.4943,0,.8945.0848,1.2004.2537.3056.1692.5368.3806.6929.6344s.2568.5206.3025.8003c.0455.28.0488.5367.0098.771-.0262.3254-.1399.6801-.3415,1.0638-.2019.384-.5075.7094-.9174.9759-.4099.2669-.9534.4002-1.6298.4002h-2.03Zm-1.4054-7.0854l-1.7372,14.2097h2.2642l.6051-4.9382h2.069c.9238,0,1.711-.1397,2.3618-.4197.6505-.2797,1.1971-.6441,1.6395-1.093.4422-.4489.7808-.9531,1.015-1.5127.2343-.5593.3904-1.119.4685-1.6786.0909-.7286.0455-1.3761-.1366-1.9421-.1824-.566-.4816-1.0443-.8979-1.4346-.4166-.3904-.9339-.6862-1.5517-.8881-.6183-.2016-1.3176-.3026-2.0983-.3026h-4.0014Zm-14.112,14.2097h9.7008l.2733-2.1666h-7.3585l.4684-3.8842h6.2851l.2733-2.1471h-6.2851l.4684-3.9038h7.0854l.2538-2.108h-9.4277l-1.7372,14.2097Zm-11.6136,0h9.2714l.2733-2.1861h-7.0072l1.4639-12.0236h-2.2642l-1.7372,14.2097Zm-12.3749,0h9.7008l.2733-2.1666h-7.3586l.4684-3.8842h6.2851l.2733-2.1471h-6.2851l.4684-3.9038h7.0854l.2538-2.108h-9.4276l-1.7372,14.2097Zm-3.1232-2.8693c-.1952.1043-.4361.2278-.7221.3709-.2864.1433-.6247.2702-1.015.3806-.3903.1108-.846.1659-1.3663.1659-.6768,0-1.295-.1104-1.8543-.3318-.5597-.2211-1.0379-.5334-1.4346-.9369-.3971-.4032-.7028-.8881-.9174-1.4542-.2147-.566-.322-1.1872-.322-1.864,0-.7807.1171-1.5127.3513-2.1958.2343-.6832.5758-1.2816,1.0247-1.7958.449-.5139.9985-.9107,1.6494-1.1906.6505-.2797,1.3987-.4066,2.2447-.3806.6895.0522,1.3044.2147,1.8445.488.5399.2733.9726.5533,1.298.8393l1.1711-2.069c-.4816-.3513-1.1061-.6798-1.8738-.9857-.768-.3056-1.6527-.4587-2.6546-.4587-1.0412,0-1.9683.1497-2.7814.4489-.8134.2995-1.5127.7094-2.0983,1.2297-.5856.5206-1.0671,1.1193-1.4444,1.7957-.3776.6768-.6539,1.3956-.8296,2.1568-.1757.7613-.2635,1.5259-.2635,2.2935,0,1.1842.2016,2.1992.6051,3.0449.4032.846.94,1.5292,1.6104,2.0494.67.5206,1.4054.9046,2.2056,1.1516.8003.247,1.5908.3708,2.3716.3708.5984,0,1.1547-.0619,1.6689-.1854.5139-.1235.9661-.2666,1.3565-.4294.3904-.1626.6832-.3026.8784-.4197l-.7028-2.0885Zm-13.1558,0c-.1952.1043-.4361.2278-.7221.3709-.2864.1433-.6247.2702-1.015.3806-.3903.1108-.846.1659-1.3663.1659-.6768,0-1.295-.1104-1.8543-.3318-.5597-.2211-1.0379-.5334-1.4346-.9369-.3971-.4032-.7028-.8881-.9174-1.4542-.2147-.566-.322-1.1872-.322-1.864,0-.7807.1171-1.5127.3513-2.1958.2343-.6832.5758-1.2816,1.0247-1.7958.449-.5139.9985-.9107,1.6494-1.1906.6505-.2797,1.3987-.4066,2.2447-.3806.6895.0522,1.3044.2147,1.8445.488.5399.2733.9726.5533,1.298.8393l1.1711-2.069c-.4816-.3513-1.1061-.6798-1.8738-.9857-.768-.3056-1.6527-.4587-2.6546-.4587-1.0412,0-1.9683.1497-2.7814.4489-.8134.2995-1.5127.7094-2.0983,1.2297-.5856.5206-1.0671,1.1193-1.4444,1.7957-.3776.6768-.6539,1.3956-.8296,2.1568-.1757.7613-.2635,1.5259-.2635,2.2935,0,1.1842.2016,2.1992.6051,3.0449.4032.846.94,1.5292,1.6104,2.0494.67.5206,1.4054.9046,2.2056,1.1516.8003.247,1.5908.3708,2.3716.3708.5984,0,1.1547-.0619,1.6689-.1854.5139-.1235.9661-.2666,1.3565-.4294.3904-.1626.6832-.3026.8784-.4197l-.7028-2.0885Zm-20.1826-.4684h6.3241l-.527-1.9519h-4.8797l-.9174,1.9519Zm5.1335-8.9591l-1.7763,1.093,3.0644,11.2038h2.6156l-4.4698-14.7953h-.1367L0,54.1154h2.2251l6.5779-12.2968Z"/>
    <path class="cls-1" d="m67.6183,13.2639c1.3339,0,2.5021.1688,3.5042.5065,1.0014.339,1.8165.8222,2.4442,1.4499.6276.6289,1.0697,1.3829,1.3287,2.2625.2571.8802.3183,1.87.1817,2.9719-.1076.87-.346,1.7405-.7146,2.6098-.3692.8706-.8931,1.6632-1.571,2.3779-.6785.7153-1.5278,1.29-2.5486,1.7257-1.0201.435-2.2463.6521-3.6762.6521h-3.0158l-.8416,6.7861h-4.2053l2.6478-21.3423h6.4665Zm-.5774,10.4965c.6386,0,1.1831-.1057,1.6348-.3183.451-.2133.8184-.4833,1.1006-.8126.2822-.3286.4993-.6715.6495-1.0291.1514-.3576.2455-.6908.2836-1.0007.0289-.232.0315-.5265.009-.8842-.0238-.3576-.1192-.7204-.2861-1.0877-.1668-.3666-.4524-.6766-.8564-.9279-.404-.2507-.9724-.3763-1.707-.3763h-3.0158l-.7984,6.4368h2.9861Zm3.6202,2.6098l4.2555,8.236h-4.9006l-4.3864-8.12,5.0315-.116Z"/>
    <polygon class="cls-1" points="136.0224 35.4754 121.6544 20.8606 122.815 21.5572 121.2832 34.6062 117.0205 34.6062 119.7727 12.4229 119.9467 12.4229 133.9739 26.9791 133.0962 26.5732 134.6608 13.2638 138.8945 13.2638 136.1385 35.4754 136.0224 35.4754"/>
    <polygon class="cls-1" points="83.6771 25.9351 83.6791 25.9235 93.4184 25.9235 93.988 21.8767 77.5476 21.8767 76.9033 25.9235 79.803 25.9235 78.3963 34.606 93.3591 34.606 93.8631 30.5464 83.1049 30.5464 83.6771 25.9351"/>
    <polygon class="cls-1" points="81.0441 13.2636 80.2954 19.2952 84.5007 19.2952 84.7456 17.3233 95.0978 17.3233 95.6017 13.2636 81.0441 13.2636"/>
    <polygon class="cls-1" points="102.971 25.9351 102.973 25.9235 112.7124 25.9235 113.282 21.8767 96.8416 21.8767 96.1972 25.9235 99.097 25.9235 97.6902 34.606 112.6531 34.606 113.157 30.5464 102.3988 30.5464 102.971 25.9351"/>
    <polygon class="cls-1" points="100.3382 13.2636 99.5894 19.2952 103.7946 19.2952 104.0396 17.3233 114.3917 17.3233 114.8956 13.2636 100.3382 13.2636"/>
    <path class="cls-1" d="m55.2526,21.856h-9.6363l-.6283,4.0378h5.5515l-.5213,4.1879c-.3711.1933-.8145.3344-1.3274.4214-.5136.0864-1.0703.1302-1.669.1302-1.0438,0-1.9783-.1443-2.8024-.4356-.8248-.2893-1.5156-.7146-2.075-1.2753-.558-.5606-.9614-1.2417-1.2101-2.044-.2488-.8029-.3106-1.7057-.1856-2.7116.1412-1.1413.4201-2.1407.8364-3.0016.4156-.8596.9647-1.5801,1.6452-2.1607.6811-.5793,1.484-1.0143,2.41-1.3042.924-.29,1.9667-.435,3.1272-.435.4634,0,.9866.0632,1.5711.1888.5831.125,1.1534.2848,1.7089.4782.5568.1933.9962.3873,1.321.5799l1.8481-3.9147c-.7378-.4446-1.658-.8164-2.7612-1.1167-1.1039-.299-2.3418-.4492-3.7137-.4492-1.4499,0-2.8669.232-4.2479.6953-1.3815.4646-2.6394,1.1754-3.7729,2.1316-1.1335.9569-2.0852,2.1561-2.8534,3.5964-.7681,1.4396-1.2733,3.1369-1.5156,5.0888-.1849,1.4885-.0947,2.8611.2719,4.1177.3661,1.2572.9853,2.3443,1.8578,3.2619.8713.9183,1.9719,1.6342,3.2999,2.1458,1.3287.5123,2.863.7694,4.6022.7694.6573,0,1.3623-.0728,2.1156-.2184.752-.1443,1.495-.3331,2.2296-.5651.7352-.2326,1.3899-.4884,1.9661-.7688.576-.2803,1.0066-.5548,1.2914-.8268l1.1186-9.0176h-.0535l.2011-1.5859Z"/>
  </g>
</svg>
