<?xml version="1.0" encoding="UTF-8"?>
<svg id="Layer_1" xmlns="http://www.w3.org/2000/svg" width="207.2175" height="41.4717" viewBox="40 -10 227.2175 61.4717">
  <defs>
    <style>
      .cls-1{fill:#4d4d4d;}.cls-1,.cls-2{stroke-width:0px;}.cls-2{fill:#1e6a39;}
    </style>
  </defs>
  <path class="cls-2" d="m31.464,34.183c-1.4258,1.708-3.4419,3.0332-6.0469,3.9746-2.606.9414-5.4932,1.4131-8.6616,1.4131-3.3276,0-6.2456-.7266-8.7544-2.1787-2.5083-1.4521-4.4453-3.5605-5.8096-6.3242S.1276,25.0561.0924,21.3227v-2.6143c0-3.8369.647-7.1602,1.9409-9.9688,1.2939-2.8076,3.1597-4.9551,5.5981-6.4434C10.0695.809,12.9264.0649,16.2008.0649c4.5591,0,8.1245,1.0879,10.6948,3.2617,2.5703,2.1748,4.0933,5.3389,4.5684,9.4932h-7.7109c-.3521-2.2002-1.1313-3.8115-2.3369-4.832-1.2061-1.0215-2.8652-1.5322-4.9775-1.5322-2.6938,0-4.7446,1.0127-6.1533,3.0371s-2.1216,5.0352-2.1387,9.0312v2.4561c0,4.0312.7656,7.0771,2.2974,9.1367s3.7764,3.0898,6.7339,3.0898c2.9751,0,5.0967-.6338,6.3643-1.9014v-6.6279h-7.2095v-5.8359h15.1313v15.3418Z"/>
  <path class="cls-2" d="m52.1149,24.9672h-6.3115v14.0752h-7.9219V.5932h14.2861c4.542,0,8.0454,1.0127,10.5103,3.0371,2.4644,2.0244,3.6968,4.8857,3.6968,8.582,0,2.624-.5674,4.8105-1.7031,6.5625s-2.8564,3.1475-5.1626,4.1855l8.3184,15.7119v.3701h-8.5034l-7.209-14.0752Zm-6.3115-6.417h6.3906c1.9893,0,3.5298-.5059,4.6216-1.5186,1.0913-1.0117,1.6372-2.4072,1.6372-4.1855,0-1.8125-.5151-3.2393-1.5449-4.2773-1.0298-1.0391-2.6104-1.5586-4.7402-1.5586h-6.3643v11.54Z"/>
  <path class="cls-2" d="m94.1022,31.1205h-13.8901l-2.6406,7.9219h-8.4238L83.4601.5932h7.3413l14.3921,38.4492h-8.4238l-2.6675-7.9219Zm-11.751-6.417h9.6123l-4.8325-14.3926-4.7798,14.3926Z"/>
  <path class="cls-2" d="m140.0509,39.0424h-7.9224l-15.4219-25.2979v25.2979h-7.9219V.5932h7.9219l15.4482,25.3516V.5932h7.896v38.4492Z"/>
  <path class="cls-2" d="m175.1466,7.0102h-11.7778v32.0322h-7.9224V7.0102h-11.6191V.5932h31.3193v6.417Z"/>
  <path class="cls-2" d="m199.1769,28.9545c0-1.4961-.5283-2.6445-1.5845-3.4463-1.0566-.8008-2.9575-1.6455-5.7041-2.5342-2.7466-.8896-4.9209-1.7656-6.5225-2.6279-4.3662-2.3594-6.5493-5.5361-6.5493-9.5332,0-2.0771.5854-3.9297,1.7563-5.5586,1.1704-1.6279,2.8521-2.9004,5.0439-3.8154,2.1914-.916,4.6514-1.374,7.3804-1.374,2.7466,0,5.1934.498,7.3413,1.4922,2.1479.9951,3.8159,2.3994,5.0044,4.2119,1.1885,1.8135,1.7822,3.873,1.7822,6.1797h-7.9219c0-1.7607-.5547-3.1299-1.6636-4.1064-1.1094-.9775-2.6675-1.4658-4.6743-1.4658-1.937,0-3.4419.4092-4.5156,1.2285-1.0742.8184-1.6108,1.8965-1.6108,3.2344,0,1.25.6294,2.2979,1.8882,3.1426,1.2583.8447,3.1113,1.6377,5.5586,2.377,4.5068,1.3555,7.79,3.0361,9.8501,5.0439,2.0596,2.0068,3.0894,4.5068,3.0894,7.499,0,3.3271-1.2588,5.9375-3.7759,7.8301-2.5181,1.8926-5.9067,2.8389-10.167,2.8389-2.9575,0-5.6514-.542-8.0806-1.624-2.4297-1.083-4.2827-2.5654-5.5586-4.4502-1.2769-1.8828-1.9146-4.0664-1.9146-6.5488h7.9482c0,4.2432,2.5352,6.3643,7.6055,6.3643,1.8838,0,3.3535-.3828,4.4102-1.1484,1.0562-.7656,1.5845-1.8359,1.5845-3.209Z"/>
</svg>
