<?xml version="1.0" encoding="UTF-8"?>
<svg xmlns="http://www.w3.org/2000/svg" xmlns:xlink="http://www.w3.org/1999/xlink" width="170.6197" height="38.5559" viewBox="28.1 5 170.6197 30.5559" version="1.1">
  <defs>
    <linearGradient id="a" x1="10.6628" y1="0.1193" x2="10.6628" y2="38.4634" gradientUnits="userSpaceOnUse">
      <stop offset="0" stop-color="#fbb137"/>
      <stop offset="0.2817" stop-color="#fbae36"/>
      <stop offset="0.5256" stop-color="#f9a335"/>
      <stop offset="0.7545" stop-color="#f79132"/>
      <stop offset="0.9385" stop-color="#f57d2e"/>
    </linearGradient>
  </defs>
  <title>hephaestus_logo_header</title>
  <path d="M41.2667,30.3059H39.4723V19.708H29.836V30.3059H28.0415V8.3161H29.836v9.8953h9.6363V8.3161h1.7944Z" style="fill:#4d4d4d;stroke:#4d4d4d;stroke-miterlimit:10;stroke-width:0.25px"/>
  <path d="M91.4178,30.3059H89.6233V19.708H79.987V30.3059H78.1926V8.3161H79.987v9.8953h9.6363V8.3161h1.7945Z" style="fill:#4d4d4d;stroke:#4d4d4d;stroke-miterlimit:10;stroke-width:0.25px"/>
  <path d="M72.2124,14.2421q0,6.3908-6.1084,6.3907h-2.84v9.6788H61.5533V7.9757h4.3979Q72.2121,7.9757,72.2124,14.2421Zm-1.7714.0927q0-4.8395-4.6423-4.8391H63.2638v9.617h2.6874Q70.4412,19.1127,70.441,14.3348Z" style="fill:#4d4d4d;stroke:#4d4d4d;stroke-miterlimit:10;stroke-width:0.25px"/>
  <path d="M103.97,11.4463l-5.9072,19.003h-1.76L103.175,8.46h1.5571l6.8722,21.99h-1.76Z" style="fill:#4d4d4d;stroke:#4d4d4d;stroke-miterlimit:10;stroke-width:0.25px"/>
  <path d="M144.7505,23.9293q0,6.5433-5.9432,6.5433a5.1733,5.1733,0,0,1-4.4321-1.93,7.1886,7.1886,0,0,1-1.2369-4.4028h1.89a4.9646,4.9646,0,0,0,1.1338,3.6489,3.6927,3.6927,0,0,0,2.68,1.1157,3.3933,3.3933,0,0,0,3.23-1.5683,6.7477,6.7477,0,0,0,.6869-3.4072,4.3824,4.3824,0,0,0-2.3361-3.9207q-2.199-1.0856-4.3975-2.1706a4.8088,4.8088,0,0,1-2.3364-4.2825,5.963,5.963,0,0,1,1.3057-3.95,5.1023,5.1023,0,0,1,4.1225-1.7493,4.6874,4.6874,0,0,1,3.8826,1.7187,6.5989,6.5989,0,0,1,1.2711,3.77h-1.9242a5.1451,5.1451,0,0,0-.79-2.5633,2.7421,2.7421,0,0,0-2.44-1.3267,3.0792,3.0792,0,0,0-2.7141,1.3568,4.8375,4.8375,0,0,0-.7557,2.7742q0,2.3829,3.0233,3.74a30.2479,30.2479,0,0,1,3.573,1.84,5.1414,5.1414,0,0,1,2.3364,2.8644A8.5287,8.5287,0,0,1,144.7505,23.9293Z" style="fill:#4d4d4d;stroke:#4d4d4d;stroke-miterlimit:10;stroke-width:0.25px"/>
  <path d="M198.4633,23.9293q0,6.5433-5.9433,6.5433a5.1734,5.1734,0,0,1-4.4321-1.93,7.1886,7.1886,0,0,1-1.2368-4.4028h1.8895a4.9642,4.9642,0,0,0,1.1338,3.6489,3.6925,3.6925,0,0,0,2.68,1.1157,3.3934,3.3934,0,0,0,3.23-1.5683,6.7477,6.7477,0,0,0,.6869-3.4072,4.3824,4.3824,0,0,0-2.3361-3.9207q-2.1992-1.0856-4.3975-2.1706a4.8086,4.8086,0,0,1-2.3364-4.2825,5.963,5.963,0,0,1,1.3057-3.95,5.1021,5.1021,0,0,1,4.1225-1.7493,4.6872,4.6872,0,0,1,3.8825,1.7187,6.5989,6.5989,0,0,1,1.2711,3.77h-1.9241a5.1461,5.1461,0,0,0-.79-2.5633,2.7423,2.7423,0,0,0-2.44-1.3267,3.0789,3.0789,0,0,0-2.7141,1.3568,4.8368,4.8368,0,0,0-.7558,2.7742q0,2.3829,3.0234,3.74a30.2528,30.2528,0,0,1,3.5729,1.84,5.141,5.141,0,0,1,2.3364,2.8644A8.5219,8.5219,0,0,1,198.4633,23.9293Z" style="fill:#4d4d4d;stroke:#4d4d4d;stroke-miterlimit:10;stroke-width:0.25px"/>
  <path d="M162.3965,9.628h-4.9983V30.06h-1.741V9.628H150.72V8.0706h11.6767Z" style="fill:#4d4d4d;stroke:#4d4d4d;stroke-miterlimit:10;stroke-width:0.25px"/>
  <path d="M181.24,24.0994a6.9133,6.9133,0,0,1-1.54,4.7032,7.2293,7.2293,0,0,1-9.7885.03,6.8665,6.8665,0,0,1-1.5061-4.7032V8.2789h1.8482V23.9161q0,5.1921,4.5692,5.1921t4.5692-5.1921V8.2789H181.24Z" style="fill:#4d4d4d;stroke:#4d4d4d;stroke-miterlimit:10;stroke-width:0.25px"/>
  <polygon points="46.265 8.175 46.265 9.643 54.965 9.643 54.965 9.671 55.105 9.671 55.105 8.175 46.265 8.175" style="fill:#4d4d4d;stroke:#4d4d4d;stroke-miterlimit:10;stroke-width:0.25px"/>
  <polygon points="46.265 18.584 46.265 20.053 54.965 20.053 54.965 20.08 55.105 20.08 55.105 18.584 46.265 18.584" style="fill:#4d4d4d;stroke:#4d4d4d;stroke-miterlimit:10;stroke-width:0.25px"/>
  <polygon points="46.265 28.83 46.265 30.299 54.965 30.299 54.965 30.327 55.105 30.327 55.105 28.83 46.265 28.83" style="fill:#4d4d4d;stroke:#4d4d4d;stroke-miterlimit:10;stroke-width:0.25px"/>
  <polygon points="117.882 8.175 117.882 9.643 126.582 9.643 126.582 9.671 126.722 9.671 126.722 8.175 117.882 8.175" style="fill:#4d4d4d;stroke:#4d4d4d;stroke-miterlimit:10;stroke-width:0.25px"/>
  <polygon points="117.882 18.584 117.882 20.053 126.582 20.053 126.582 20.08 126.722 20.08 126.722 18.584 117.882 18.584" style="fill:#4d4d4d;stroke:#4d4d4d;stroke-miterlimit:10;stroke-width:0.25px"/>
  <polygon points="117.882 28.83 117.882 30.299 126.582 30.299 126.582 30.327 126.722 30.327 126.722 28.83 117.882 28.83" style="fill:#4d4d4d;stroke:#4d4d4d;stroke-miterlimit:10;stroke-width:0.25px"/>
<!--<path d="M4.2979,6.0473A9.5149,9.5149,0,0,0,9.989,12.614c3.7649,1.4009,8.2112,3.2961,9.8487,6.98.5458.9552,4.0937,9.4156-4.0938,14.1917H5.42s-9.2344-4.1328-3.0055-12.1938C2.4148,21.5924-3.3456,14.6851,4.2979,6.0473ZM6.5663.1193s-2.9619,8.08,5.04,11.937C11.6067,12.0563,16.544,5.1107,6.5663.1193ZM6.1339,38.4634l8.3712-.0129a12.347,12.347,0,0,0,3.9283-3.62H2.4892A10.28,10.28,0,0,0,6.1339,38.4634Z" style="fill:url(#a)"/>
  <path d="M3.5567,27.7568S3.09,31.1814,8.33,31.7522C8.33,31.7522,8.1747,28.0682,3.5567,27.7568Z" style="fill:#fff"/>
  <path d="M6.6181,19.9218s-2.9576,7.9907,4.8255,11.8823C11.4436,31.8041,16.3211,24.9549,6.6181,19.9218Z" style="fill:#fff"/>-->
</svg>
